<?xml version="1.0" standalone="no"?>
<!DOCTYPE svg PUBLIC "-//W3C//DTD SVG 20010904//EN"
 "http://www.w3.org/TR/2001/REC-SVG-20010904/DTD/svg10.dtd">
<svg version="1.0" xmlns="http://www.w3.org/2000/svg"
 width="2000.000000pt" height="1803.000000pt" viewBox="0 0 2000.000000 1803.000000"
 preserveAspectRatio="xMidYMid meet">

<g transform="translate(0.000000,1803.000000) scale(0.100000,-0.100000)"
fill="#000000" stroke="none">
<path d="M12109 14133 c-32 -74 -86 -261 -105 -359 -24 -128 -22 -326 4 -425
37 -137 119 -274 240 -401 l63 -66 -123 43 c-311 108 -629 130 -952 64 -431
-88 -829 -349 -1082 -710 -40 -57 -61 -79 -73 -76 -9 3 -59 22 -111 42 -122
46 -283 89 -435 115 -141 25 -446 30 -585 11 -246 -35 -460 -94 -652 -182
-104 -48 -281 -152 -376 -221 -127 -92 -291 -249 -387 -369 -66 -81 -101 -117
-108 -111 -7 5 -43 34 -82 64 -289 230 -698 395 -1085 439 -138 15 -473 7
-600 -16 -599 -108 -1089 -424 -1444 -932 -82 -118 -206 -369 -253 -514 -90
-274 -119 -477 -110 -768 9 -321 67 -563 209 -870 l35 -75 -33 -82 c-115 -293
-137 -661 -59 -999 27 -121 65 -226 126 -351 200 -413 542 -719 979 -877 98
-36 241 -70 343 -82 l57 -7 0 -847 c0 -723 2 -855 15 -905 65 -250 336 -366
568 -243 73 38 119 90 166 187 l36 75 3 813 c2 446 6 812 10 812 4 0 32 -9 62
-21 157 -60 378 -103 588 -115 l122 -7 0 -978 c0 -677 3 -994 11 -1031 36
-172 182 -297 357 -306 187 -10 336 92 399 274 16 45 18 140 20 1136 l4 1087
94 51 c52 28 138 80 192 115 53 36 99 65 102 65 4 0 38 -23 76 -51 144 -104
301 -189 458 -248 291 -109 492 -146 807 -145 259 0 461 33 693 113 l57 20 0
-772 c0 -657 2 -781 15 -831 65 -250 343 -368 571 -242 70 39 144 124 177 206
l22 55 3 888 c2 488 5 887 7 887 2 0 55 -20 119 -45 206 -81 449 -122 671
-113 l115 4 0 -1047 c0 -738 3 -1064 11 -1101 54 -254 330 -381 569 -262 50
24 127 102 156 155 50 93 48 30 51 1326 l4 1213 47 31 c90 62 206 165 289 259
308 346 472 799 449 1239 l-6 124 83 86 c230 237 413 551 512 876 128 422 122
864 -17 1295 -42 132 -137 340 -205 451 l-41 65 267 -67 c321 -81 441 -100
673 -107 307 -8 506 29 733 138 203 98 356 247 446 435 60 124 74 190 74 340
-1 110 -4 141 -24 200 -132 386 -470 717 -986 966 -213 102 -340 146 -755 261
l-155 43 3 110 c6 188 -26 295 -123 416 -66 81 -205 195 -301 246 -84 44 -77
47 -161 -66 -128 -169 -193 -322 -193 -453 l0 -70 -37 7 c-21 4 -89 12 -151
19 l-114 11 -24 70 c-89 256 -209 397 -431 509 -130 65 -264 109 -432 140
-126 24 -128 24 -152 -31z m-199 -1671 c133 -34 274 -97 381 -169 303 -206
477 -485 545 -870 l17 -103 106 -62 c437 -259 732 -692 806 -1183 17 -117 20
-360 4 -472 -29 -208 -111 -439 -218 -615 -111 -183 -213 -299 -394 -451 -88
-73 -107 -94 -103 -111 3 -12 15 -75 27 -141 18 -103 20 -143 16 -285 -6 -183
-21 -255 -81 -405 -87 -214 -219 -387 -400 -522 -154 -115 -293 -178 -491
-224 -136 -31 -335 -31 -483 0 -244 51 -403 137 -650 349 -46 40 -86 72 -89
72 -3 0 -48 -39 -101 -87 -217 -201 -326 -281 -498 -364 -133 -64 -282 -113
-429 -141 -162 -30 -406 -30 -576 0 -221 40 -454 136 -644 266 -80 55 -274
225 -364 320 l-34 36 -131 -128 c-232 -226 -386 -323 -641 -405 -166 -53 -296
-70 -494 -65 -293 9 -522 81 -777 246 l-90 59 -85 -24 c-252 -70 -469 -69
-709 3 -385 117 -701 440 -804 824 -38 144 -50 248 -43 384 11 203 49 334 155
537 l56 107 -71 118 c-242 404 -311 834 -203 1271 117 477 438 871 885 1088
508 246 1128 211 1592 -90 186 -121 284 -212 483 -450 73 -88 141 -168 151
-179 16 -18 21 -10 127 205 133 270 218 401 348 538 250 263 496 402 860 487
110 26 135 28 334 28 172 1 232 -3 300 -18 237 -51 396 -117 640 -264 96 -58
178 -107 182 -109 3 -1 34 63 68 144 112 265 164 353 293 497 169 188 434 331
702 381 57 10 128 13 245 11 143 -4 181 -8 280 -34z"/>
</g>
</svg>
