<!DOCTYPE svg PUBLIC "-//W3C//DTD SVG 20010904//EN" "http://www.w3.org/TR/2001/REC-SVG-20010904/DTD/svg10.dtd">
<svg version="1.0" xmlns="http://www.w3.org/2000/svg" width="1200px" height="766px" viewBox="0 0 12000 7660" preserveAspectRatio="xMidYMid meet">
<g id="layer101" fill="#000000" stroke="none">
 <path d="M10210 5791 c-126 -34 -190 -79 -190 -134 0 -64 32 -72 118 -28 85 43 157 61 240 61 97 0 148 -16 192 -60 46 -46 60 -92 67 -220 l6 -105 -46 51 c-69 77 -127 99 -252 98 -86 0 -108 -4 -157 -26 -104 -48 -181 -147 -208 -269 -18 -82 -9 -240 19 -311 32 -83 109 -164 191 -201 55 -25 78 -30 155 -31 79 -1 97 3 149 27 36 16 77 47 103 75 l43 47 0 -56 c0 -41 5 -60 18 -72 25 -23 78 -21 102 3 19 19 20 33 20 443 0 457 -4 496 -54 576 -39 61 -103 109 -174 131 -84 26 -249 27 -342 1z m276 -475 c104 -49 149 -143 142 -300 -7 -142 -55 -224 -155 -262 -52 -20 -173 -15 -218 8 -50 27 -100 84 -119 139 -22 60 -25 190 -7 256 41 148 215 225 357 159z"/>
 <path d="M1270 5493 c-8 -3 -23 -12 -32 -21 -17 -14 -18 -46 -18 -411 0 -448 -1 -441 69 -441 54 0 71 23 71 96 l0 59 19 -30 c28 -45 60 -71 126 -102 51 -23 73 -27 150 -27 79 -1 98 3 148 28 64 31 99 70 130 148 19 49 21 76 25 331 2 154 1 294 -3 313 -11 62 -95 81 -130 31 -12 -18 -15 -70 -15 -292 0 -211 -3 -283 -15 -321 -24 -83 -75 -116 -181 -116 -103 -1 -190 55 -231 147 -15 34 -18 80 -21 313 l-4 272 -28 15 c-31 16 -36 17 -60 8z"/>
 <path d="M2385 5486 c-91 -29 -149 -78 -184 -156 -57 -125 6 -260 140 -302 64 -21 210 -38 322 -38 l77 0 0 -48 c0 -68 -26 -147 -55 -170 -14 -11 -48 -25 -75 -32 -66 -16 -182 7 -285 56 -82 39 -109 36 -121 -11 -20 -81 152 -164 346 -168 173 -3 268 54 309 188 19 61 21 92 21 360 l0 294 -26 20 c-35 27 -59 26 -89 -4 -19 -18 -25 -35 -25 -68 l0 -43 -54 52 c-39 38 -69 57 -107 68 -62 19 -139 20 -194 2z m245 -140 c55 -37 89 -92 102 -168 18 -100 18 -99 -114 -92 -210 11 -276 40 -285 126 -7 61 18 111 71 144 36 22 49 25 113 21 57 -3 81 -10 113 -31z"/>
 <path d="M3173 5485 l-33 -14 0 -409 c0 -383 1 -410 18 -425 10 -10 35 -17 55 -17 46 0 67 28 67 92 l0 48 41 -45 c23 -25 67 -57 98 -72 48 -23 69 -27 146 -27 142 0 228 49 277 158 22 49 23 62 26 364 3 333 3 334 -45 353 -31 12 -82 -8 -88 -34 -2 -12 -6 -148 -7 -302 -3 -271 -4 -282 -27 -328 -28 -58 -79 -88 -155 -90 -81 -2 -144 21 -193 69 -66 67 -73 103 -73 399 0 227 -2 253 -17 267 -28 24 -55 28 -90 13z"/>
 <path d="M4399 5485 c-110 -22 -182 -81 -209 -170 -8 -26 -14 -135 -17 -302 l-5 -263 -69 0 c-56 0 -73 -4 -89 -20 -26 -26 -25 -46 5 -75 21 -22 33 -25 90 -25 l65 0 0 -101 c0 -130 14 -159 77 -159 20 0 40 8 53 22 18 19 20 35 20 130 l0 108 103 0 c117 0 147 12 147 59 0 51 -24 61 -144 61 l-107 0 3 263 c3 287 6 302 63 337 17 11 58 22 91 26 75 8 104 26 104 63 0 16 -7 34 -15 41 -22 19 -92 21 -166 5z"/>
 <path d="M4895 5486 c-66 -21 -101 -43 -144 -92 -48 -55 -65 -109 -58 -181 10 -101 54 -151 162 -186 58 -20 207 -37 318 -37 l77 0 0 -34 c0 -58 -19 -137 -41 -167 -14 -20 -37 -34 -76 -45 -52 -15 -63 -15 -140 0 -45 9 -116 32 -157 52 -83 39 -110 36 -122 -12 -21 -83 165 -168 361 -167 151 1 223 40 277 150 l33 68 3 307 4 307 -26 26 c-31 30 -55 32 -90 4 -23 -18 -26 -28 -26 -77 l0 -57 -19 31 c-61 100 -211 149 -336 110z m195 -116 c49 -13 104 -62 129 -112 11 -24 23 -73 27 -111 l7 -67 -119 6 c-220 11 -294 45 -294 135 0 120 113 187 250 149z"/>
 <path d="M5681 5486 c-14 -8 -28 -22 -32 -32 -4 -11 -8 -191 -8 -400 -1 -371 0 -382 20 -408 15 -19 30 -26 54 -26 45 0 75 38 75 95 l0 42 48 -47 c58 -58 137 -90 222 -90 64 0 80 12 80 63 0 38 -30 56 -116 68 -43 6 -97 20 -119 32 -47 26 -93 88 -105 143 -5 21 -10 148 -10 282 l0 243 -25 24 c-27 28 -49 31 -84 11z"/>
 <path d="M6413 5481 c-29 -10 -60 -24 -70 -31 -90 -68 -117 -119 -117 -218 1 -64 4 -78 30 -115 34 -49 111 -91 194 -107 30 -6 117 -13 194 -17 l138 -6 -4 -71 c-8 -115 -48 -166 -143 -180 -60 -9 -185 19 -267 60 -76 38 -103 38 -118 -2 -22 -57 34 -108 165 -150 108 -35 266 -38 336 -7 66 30 113 75 140 135 23 51 24 62 27 357 2 167 1 314 -2 326 -5 21 -43 45 -72 45 -8 0 -26 -11 -39 -25 -20 -19 -25 -35 -25 -71 l0 -47 -29 40 c-63 87 -221 126 -338 84z m225 -117 c83 -34 132 -111 140 -217 l5 -68 -114 6 c-184 10 -256 31 -284 85 -36 69 2 161 80 196 41 18 128 17 173 -2z"/>
 <path d="M7656 5479 l-26 -20 0 -588 c0 -557 1 -589 18 -604 25 -23 85 -22 105 1 15 16 17 49 17 257 l0 238 43 -46 c24 -27 68 -58 102 -74 52 -24 72 -28 146 -27 71 1 96 6 145 28 145 66 226 210 227 401 1 145 -34 252 -111 337 -136 150 -379 158 -507 16 l-45 -50 0 55 c0 48 -4 58 -26 76 -15 12 -34 21 -44 21 -10 0 -29 -9 -44 -21z m501 -135 c85 -49 124 -143 124 -294 0 -201 -86 -310 -246 -310 -85 0 -131 16 -175 60 -57 57 -82 133 -82 251 -1 183 59 287 187 320 52 14 145 1 192 -27z"/>
 <path d="M8683 5490 c-12 -5 -26 -18 -32 -29 -8 -13 -11 -206 -11 -593 0 -650 -4 -618 75 -618 79 0 75 -33 75 621 0 535 -1 578 -17 597 -21 25 -60 35 -90 22z"/>
 <path d="M9278 5481 c-115 -38 -176 -89 -228 -191 -35 -68 -50 -136 -50 -227 0 -158 41 -265 134 -351 80 -72 145 -95 271 -96 96 0 103 1 177 37 119 57 180 139 214 285 30 125 1 300 -64 397 -40 57 -124 122 -184 141 -82 25 -202 28 -270 5z m235 -125 c50 -20 100 -77 122 -138 27 -73 28 -240 1 -317 -42 -120 -155 -186 -281 -162 -118 21 -187 105 -204 246 -30 252 77 405 271 390 32 -3 73 -11 91 -19z"/>
 <path d="M5418 3991 l-33 -29 -5 -299 -5 -298 -70 -8 c-38 -4 -83 -12 -99 -17 -16 -6 -33 -10 -37 -10 -5 0 -9 104 -9 231 0 261 -3 274 -72 305 -33 15 -42 15 -74 3 -20 -8 -46 -27 -58 -42 -20 -27 -21 -42 -24 -281 l-3 -252 -54 -11 c-171 -36 -324 -188 -366 -363 -17 -75 -15 -172 6 -247 17 -61 17 -64 -2 -110 -34 -79 -48 -153 -47 -248 2 -166 61 -304 183 -425 132 -131 273 -185 460 -178 126 5 216 33 311 97 l61 40 68 -68 c82 -83 214 -153 325 -172 89 -15 224 -6 299 20 l57 20 73 -74 c80 -81 158 -126 256 -146 71 -15 214 -7 266 15 l40 17 -27 -28 c-39 -40 -68 -111 -68 -164 0 -26 9 -77 20 -113 24 -76 26 -77 125 -44 80 26 146 81 171 143 16 37 23 45 46 45 14 0 33 3 42 6 13 5 16 -1 16 -25 0 -33 25 -88 58 -130 l19 -24 36 22 c74 46 101 91 109 185 3 27 8 30 87 52 260 71 456 240 455 394 0 121 -89 216 -233 250 -69 16 -212 8 -308 -17 -40 -11 -73 -18 -73 -17 0 2 8 18 18 36 55 98 66 147 66 293 0 133 -1 144 -30 217 -30 72 -103 188 -138 217 -11 10 -16 31 -16 75 0 132 -62 269 -162 361 l-58 52 0 337 c0 262 -3 344 -14 369 -29 71 -120 90 -178 38 l-33 -29 -3 -315 -3 -314 -76 -7 c-42 -4 -94 -14 -117 -21 -23 -8 -44 -15 -48 -15 -3 0 -8 114 -10 254 -3 241 -4 256 -24 283 -12 15 -38 34 -58 42 -32 12 -41 12 -77 -4 -66 -30 -69 -44 -69 -300 0 -211 -1 -226 -17 -221 -87 25 -121 30 -208 29 -119 -1 -228 -32 -313 -88 l-53 -35 -55 31 -54 31 0 304 c0 327 -4 354 -51 388 -39 27 -103 21 -141 -13z m795 -786 c78 -20 122 -44 196 -106 l62 -52 32 30 c72 67 143 94 243 94 43 0 88 -7 115 -17 155 -61 247 -217 222 -374 l-9 -59 67 -69 c94 -96 139 -202 139 -327 0 -156 -85 -308 -221 -396 -41 -26 -47 -35 -52 -74 -14 -99 -95 -203 -197 -253 -47 -23 -68 -27 -145 -27 -81 0 -96 3 -157 33 -80 39 -129 91 -170 182 -17 36 -32 67 -33 69 -2 1 -37 -15 -77 -38 -126 -69 -235 -86 -353 -56 -140 37 -248 128 -319 269 -33 67 -56 94 -56 67 0 -4 -33 -42 -72 -83 -79 -82 -156 -128 -246 -147 -212 -45 -427 62 -521 259 -35 73 -36 78 -36 195 0 120 0 120 40 202 l40 81 -25 54 c-20 43 -25 69 -25 138 0 108 22 167 87 236 67 72 145 105 241 105 40 0 86 -5 101 -11 23 -8 32 -7 45 4 9 8 44 28 76 43 53 24 72 27 165 27 99 1 109 -1 172 -32 37 -18 91 -54 120 -81 l53 -48 55 49 c57 52 127 92 195 114 55 17 179 17 248 -1z"/>
 </g>

</svg>